<svg version="1" xmlns="http://www.w3.org/2000/svg" width="2954.667" height="2954.667" viewBox="0 0 2216.000000 2216.000000"><path d="M.5 292.5c0 161.1.1 226.9.2 146.2.2-80.8.2-212.6 0-293C.6 65.3.5 131.3.5 292.5zM1339.5 1.3c479.6.5 872.1 1 872.1 1.1.2.2 2.6 765 3.4 1085.6.5 228.2.7 153.9.8-404.3L2216 0l-874.2.2-874.3.2 872 .9z"/><path d="M596.9 74.8c19.3 49.1 32.2 101.5 36.7 149 2.3 23.4 1.5 65.9-1.6 85.7-3.6 23.4-8.4 42.7-15.6 62.4-5.1 13.9-19.2 42.1-27 53.6-8.3 12.5-11 17.9-13 25.6-6 23.3 13.1 46.4 59.1 71.6 6.1 3.4 24.2 12.9 40.3 21.2 43.7 22.5 58.4 31.9 71.7 45.6 4 4.2 9.3 8.4 12.3 9.9 7.3 3.7 28.5 18.1 41.1 27.9 28 21.9 50.1 43.9 50.1 49.8 0 6.8-24.7-4-60.5-26.6-47.2-29.6-81.4-50.5-203-123.5-50-30.1-100.6-60.5-112.2-67.6l-21.3-13-14.8-25.9c-31.8-55.6-64.5-105.7-107.5-165-14.3-19.6-30.4-41.2-32.9-44-.5-.6.7 2.8 2.7 7.5 52.8 123 68.8 171.7 77.2 233.8 2.5 18.3 2.5 63.3 0 79.2-3.9 24.9-9.6 45.2-19.2 67.9-6.7 16-8 24.5-7.2 47.3.6 18.1 2.4 27.6 8.2 45.8 9.4 28.8 19.2 47.8 55.5 106.5 21.5 34.7 29.6 48.9 37.6 65.3 4.1 8.2 8.3 15.3 11.1 18.5 15.5 17.4 30.9 51.5 32.1 70.8.3 5.5 0 9.3-.7 10.7-3.9 7.2-17.2-3.8-34.8-28.9-3.4-4.8-8.3-11.4-11-14.7-7.2-9.1-15.4-23.4-32.7-57.5-18-35.4-25.5-48-34.7-58-9.1-9.9-15.2-13.2-24.4-13.2-6.1 0-7.8.5-13.4 3.5-8.1 4.4-18.8 15.1-27.1 27.1-7.6 10.9-6.3 9.6-34 35.5-86.7 81.2-181.9 188.5-261.5 294.5L0 1183v1033h2216l-.2-43.3-.3-43.2-.2 42.8-.3 42.7h-746.5c-410.6 0-746.5-.2-746.5-.4 0-1.2 36.2-75.9 42.3-87.2 24.5-45.5 44.9-71.4 69.9-88.5 4.8-3.3 9.2-6.9 9.8-7.9 1.7-3.1 14.2-13.1 22.8-18.3 11.9-7 29.7-13.8 57.3-21.6 13.6-3.9 28.7-8.5 33.5-10.2 29.1-10.1 39.2-24.3 33.5-46.9-2.5-9.9-7.6-20.8-16.2-34.5-5.1-8-7.1-12.5-10.1-22.5-9.4-31-15.8-69.4-21.3-129-5-53.9-7.6-79.7-9.6-93-2.1-14.3-4.7-29.1-5.3-29.7-.8-.8-6.9 12.3-10.1 21.9-8.1 24.3-10.1 54.3-7.1 108.8 2.9 52.8 1.8 76-4.4 95.3-3.1 9.7-8.3 19.3-12.8 24l-2.8 2.7-9.4-8.4c-26-23-48.6-54.8-70.5-99.1-12.9-26-18.4-38.9-39.8-93.5-51.1-130.6-76-215.5-86.1-293.9-3.3-25.2-6.1-66-4.4-64.3 1.3 1.4 10.8 33.7 16.2 55.5 3.1 12.2 9.6 40.9 14.6 63.7 11.5 52.8 16 72.1 22.1 94.5 6.7 24.2 17.5 56.3 24.4 72.1 3.1 7.1 6.3 15.1 7.2 17.9 8.3 26.8 11 34.6 15.8 44.9 17.8 38.6 44.4 74.8 88.3 119.9 6.3 6.5 11.6 11.7 11.7 11.5.7-.7 2.6-26 4.5-57.3 3.2-54.4 5.1-73.9 9.6-98.5 8.2-45.3 23.3-78.5 46.3-101.9 8.3-8.4 15.8-14.8 16.5-14 .2.2.9 24.5 1.5 53.9 2.4 111.7 6.8 162.6 18.6 216 1.9 8.5 4.1 20.9 5 27.5 17.8 133.6 109.5 248.8 230.8 290.1 5.3 1.8 9.7 3.1 9.7 2.9 0-.3-3.6-5.2-8-11-50.1-66.7-74-158.5-68-262.1 3.2-54.1 13.6-111.7 30.5-167.9 3.3-11.1 4.5-16.6 4.5-21.5 0-9.8 3.4-22.1 9.4-34.5 6.7-13.6 14.9-24.7 26-35.2 9.1-8.6 15.8-12.6 20.3-12.1 2.5.3 2.8.7 3.1 4.6.5 7.4-4.2 18.9-15.2 37.1-4.6 7.5-6 11-8.5 21.4-1.7 6.8-6 22.9-9.6 35.8-13.5 48.2-19.5 72.7-23.2 95.4-2.5 15.7-2.5 48.4.1 57.5 2.8 10.1 6.5 17 12.3 23.1 6 6.3 12.7 10.1 22.3 12.5 8.9 2.3 32.7 1.4 45.5-1.6 5-1.1 24.5-3.9 43.5-6 55.4-6.4 83.9-10.6 119.5-17.6 64.1-12.7 117.7-31.8 161.3-57.7 10.1-6 10.3-6.1 15.6-15.1 25.5-42.9 51.7-118.6 61-176.1 4.3-26.2 4.5-25.4-3.1-12.7-18.2 30.7-43.2 49.5-73 54.7-27.1 4.7-56.8-3.2-83.8-22.3-10.7-7.7-26.5-23.7-34.7-35.2-6.6-9.5-6.7-9.5-12.5-10.9-9.7-2.2-16.2-6-24.3-14.1-8.6-8.5-11.7-13.8-21-36.5-7.6-18.4-11.7-26.3-17.4-33.6-7.5-9.5-19.5-16-33.9-18.4-7.6-1.2-21.2-15.5-27.2-28.8-8-17.4-6.9-40.3 2.9-63.6 15.1-35.7 50.6-72.1 89.5-91.5 10.8-5.5 26.7-11 36.2-12.6 6.5-1.1 6.8-1.1 10.6 1.4 6.6 4.4 15 6.9 25 7.4 17.5.8 31.9-5.2 67.8-28.2 11-7.1 24.5-15.3 30-18.2 33.6-17.7 59.3-17.4 87 .8 6.3 4.1 6.5 4.4 9.6 12.7 4.3 11.9 8.1 27.7 13.4 54.9 5.6 28.7 7.2 32.8 9.4 24.4 2.2-8.2 6.6-45.6 5.6-47.3-.3-.4-.6-5.7-.6-11.6 0-18 4.3-29.2 15.8-41.3 11-11.7 17.7-15.7 65.6-38.3 42.9-20.3 54.6-41.4 43.1-77.8-1.4-4.6-3.2-9.6-4-11-1.2-2.4-.9-3.6 3.1-13.6 6.9-16.8 8.7-24.7 9.2-40.8.4-12.6.2-15-2.1-23.8-8.4-32.7-34.5-59.9-85.1-88.9-7.1-4.1-30.1-16.1-51-26.7-20.9-10.6-38.5-19.7-39-20.1-.6-.5-5.6-2-11.3-3.5-37.9-9.6-66.1-31.3-94.4-73-4.2-6.1-15.3-24.1-24.8-40-26.8-44.8-37.9-60.4-55-77.5-14.9-14.9-20.7-18.9-55-37.7-34.9-19.1-64.6-30.6-104.8-40.8-31.7-7.9-56.3-12.3-119.7-21.4-72.4-10.4-96.2-14.6-129-22.7-20.6-5.1-48.3-14.1-64.7-21-9.8-4.1-12.6-5.8-21-13.1-28.6-24.8-54-55.2-101.3-121.3-43.8-61.2-61-82.6-87.9-109.5-19.4-19.4-35-32.6-40.6-34.4-5.1-1.6-17.2-9.6-28-18.6-31-25.6-84.5-87.9-132-153.5-13.4-18.6-13.7-18.9-11.1-12.2zm830.4 701.7c17 4.4 27.1 15.3 28.5 30.7.4 5.4 1.2 7 5.9 13.7 11.3 15.6 20.5 33.9 27.1 53.6 5.6 16.4 7.5 27.6 7 39.6-.7 15-5.2 22.1-15.8 24.9-14 3.8-42.1-6.7-58.6-21.8-40-36.5-86.2-49.2-139.2-38.2-36 7.5-83.2 31.9-122.1 63-6.2 5-11.5 9-11.6 8.8-.7-.9 2.7-13.5 5.5-20.1 6-14.6 15.1-27.6 29-41.6 37.9-38.3 107-75.1 202-107.7 17.3-6 19.1-6.4 27.5-6.4 5 0 11.7.7 14.8 1.5z"/></svg>