<?xml version="1.0" encoding="iso-8859-1"?>
<!-- Generator: Adobe Illustrator 19.0.0, SVG Export Plug-In . SVG Version: 6.00 Build 0)  -->
<svg xmlns="http://www.w3.org/2000/svg" xmlns:xlink="http://www.w3.org/1999/xlink" version="1.1" id="Layer_1" x="0px" y="0px" viewBox="0 0 512 512" style="enable-background:new 0 0 512 512;" xml:space="preserve" width="512" height="512">
<g>
	<path d="M437.345,307.41c-59.509,2.461-118.4-31.642-159.573-72.816c-33.999-33.999-58.228-74.678-68.188-114.551   c-3.898-15.591-5.33-30.476-4.821-44.577c-63.506,71.115-93.799,204.443-33.045,265.197   C232.856,401.803,367.219,370.27,437.345,307.41z"/>
	<path d="M64.812,447.23c0.606,8.926-7.33,32.263,11.982,51.606c17.585,17.585,46.13,17.518,63.647,0   c17.534-17.534,17.534-46.084-0.015-63.633l-10.591-10.605l44.602-44.219c-8.569-5.367-16.761-11.334-23.932-18.505   s-13.138-15.359-18.503-23.926l-44.619,44.228l-10.605-10.62c-17.536-17.596-46.1-17.547-63.618,0   c-17.549,17.549-17.549,46.099,0,63.647C31.738,453.813,58.25,446.666,64.812,447.23z"/>
	<path d="M341.42,107.329c-2.637,2.622,0.688,21.885,21.211,42.422c20.552,20.508,39.756,23.833,42.437,21.211   c2.637-2.637-0.688-21.899-21.211-42.437C371.202,115.869,346.633,102.116,341.42,107.329z"/>
	<path d="M507.797,165.498c-8.657-34.644-30.073-70.386-60.308-100.605C396.212,13.59,306.185-27.102,256.576,22.47   c-20.874,20.859-27.231,52.939-17.886,90.308c8.657,34.644,30.073,70.386,60.308,100.605   c51.259,51.282,141.324,92.012,190.913,42.422C510.785,234.931,517.142,202.866,507.797,165.498z M426.278,192.172   c-6.27,6.284-14.751,9.287-24.419,9.287c-18.223,0-40.664-10.737-60.439-30.498c-30.234-30.249-39.346-66.724-21.211-84.858   c18.164-18.105,54.609-9.009,84.858,21.211C435.302,137.563,444.413,174.038,426.278,192.172z"/>
</g>















</svg>
